<svg xmlns="http://www.w3.org/2000/svg" width="1200" height="760" viewBox="0 0 1200 760" role="img" aria-label="LockPass product preview">
  <defs>
    <linearGradient id="window" x1="0" x2="1" y1="0" y2="1">
      <stop offset="0" stop-color="#ffffff"/>
      <stop offset="1" stop-color="#eef7f1"/>
    </linearGradient>
    <linearGradient id="panel" x1="0" x2="1" y1="0" y2="1">
      <stop offset="0" stop-color="#17342f"/>
      <stop offset="1" stop-color="#0f8c7e"/>
    </linearGradient>
    <filter id="soft-shadow" x="-20%" y="-20%" width="140%" height="140%">
      <feDropShadow dx="0" dy="32" stdDeviation="32" flood-color="#10211d" flood-opacity="0.18"/>
    </filter>
  </defs>
  <rect width="1200" height="760" fill="#eef7f1"/>
  <g filter="url(#soft-shadow)">
    <rect x="120" y="82" width="960" height="596" rx="34" fill="url(#window)"/>
    <rect x="120" y="82" width="960" height="72" rx="34" fill="#ffffff"/>
    <rect x="120" y="130" width="960" height="24" fill="#ffffff"/>
    <circle cx="166" cy="118" r="11" fill="#dc6b5d"/>
    <circle cx="202" cy="118" r="11" fill="#d8a33f"/>
    <circle cx="238" cy="118" r="11" fill="#78a86f"/>
    <rect x="168" y="200" width="216" height="420" rx="20" fill="url(#panel)"/>
    <rect x="204" y="244" width="116" height="14" rx="7" fill="#ffffff" opacity="0.78"/>
    <rect x="204" y="286" width="136" height="12" rx="6" fill="#ffffff" opacity="0.38"/>
    <rect x="204" y="326" width="108" height="12" rx="6" fill="#ffffff" opacity="0.34"/>
    <rect x="204" y="366" width="148" height="12" rx="6" fill="#ffffff" opacity="0.34"/>
    <rect x="204" y="430" width="120" height="44" rx="12" fill="#ffffff" opacity="0.18"/>
    <rect x="204" y="498" width="132" height="44" rx="12" fill="#ffffff" opacity="0.14"/>
    <rect x="430" y="200" width="584" height="78" rx="18" fill="#ffffff" stroke="#d7e4dc"/>
    <rect x="460" y="229" width="188" height="16" rx="8" fill="#17342f" opacity="0.88"/>
    <rect x="852" y="222" width="116" height="30" rx="15" fill="#0f8c7e"/>
    <rect x="430" y="310" width="276" height="118" rx="18" fill="#ffffff" stroke="#d7e4dc"/>
    <rect x="458" y="338" width="86" height="14" rx="7" fill="#17342f" opacity="0.72"/>
    <rect x="458" y="374" width="180" height="12" rx="6" fill="#6b7975" opacity="0.44"/>
    <rect x="458" y="398" width="132" height="12" rx="6" fill="#6b7975" opacity="0.34"/>
    <rect x="738" y="310" width="276" height="118" rx="18" fill="#ffffff" stroke="#d7e4dc"/>
    <rect x="766" y="338" width="92" height="14" rx="7" fill="#17342f" opacity="0.72"/>
    <rect x="766" y="374" width="178" height="12" rx="6" fill="#6b7975" opacity="0.44"/>
    <rect x="766" y="398" width="126" height="12" rx="6" fill="#6b7975" opacity="0.34"/>
    <rect x="430" y="462" width="584" height="118" rx="18" fill="#ffffff" stroke="#d7e4dc"/>
    <rect x="460" y="494" width="178" height="14" rx="7" fill="#17342f" opacity="0.72"/>
    <rect x="460" y="532" width="390" height="12" rx="6" fill="#6b7975" opacity="0.34"/>
    <rect x="460" y="556" width="318" height="12" rx="6" fill="#6b7975" opacity="0.3"/>
    <circle cx="930" cy="522" r="30" fill="#c58a25" opacity="0.88"/>
    <path d="M920 522l7 8 16-19" fill="none" stroke="#fff" stroke-width="8" stroke-linecap="round" stroke-linejoin="round"/>
  </g>
</svg>
